<svg enable-background="new 0 0 64 64" viewBox="0 0 64 64" xmlns="http://www.w3.org/2000/svg"><circle cx="32" cy="32" fill="#c75c5c" r="32"/><path d="m44 38c-6.2 0-8.2-2.9-8.2-2.9l-19.8-21.1c0 19.1 19.5 24.1 19.5 30.3 0 1.9.5 3.5 1 4.7 1.2 3 4.1 5.1 7.4 5.1 4.4 0 8-3.6 8-8s-3.5-8.1-7.9-8.1zm0 12c-2.2 0-4-1.8-4-4s1.8-4 4-4 4 1.8 4 4-1.8 4-4 4z" fill="#231f20" opacity=".2"/><path d="m44 36c-6.2 0-8.2-2.9-8.2-2.9l-19.8-21.1c0 19.1 19.5 24.1 19.5 30.3 0 1.9.5 3.5 1 4.7 1.2 3 4.1 5.1 7.4 5.1 4.4 0 8-3.6 8-8s-3.5-8.1-7.9-8.1zm0 12c-2.2 0-4-1.8-4-4s1.8-4 4-4 4 1.8 4 4-1.8 4-4 4z" fill="#e0e0d1"/><path d="m28.2 35.1s-2 2.9-8.2 2.9c-4.4 0-8 3.6-8 8s3.6 8 8 8c3.4 0 6.3-2.1 7.4-5.1.6-1.2 1-2.8 1-4.7.1-6.1 19.6-11.1 19.6-30.2zm-8.2 14.9c-2.2 0-4-1.8-4-4s1.8-4 4-4 4 1.8 4 4-1.8 4-4 4z" fill="#231f20" opacity=".2"/><path d="m28.2 33.1s-2 2.9-8.2 2.9c-4.4 0-8 3.6-8 8s3.6 8 8 8c3.4 0 6.3-2.1 7.4-5.1.6-1.2 1-2.8 1-4.7.1-6.1 19.6-11.1 19.6-30.2zm-8.2 14.9c-2.2 0-4-1.8-4-4s1.8-4 4-4 4 1.8 4 4-1.8 4-4 4z" fill="#e0e0d1"/><circle cx="32" cy="33" fill="#4f5d73" r="1.5"/></svg>